<svg width="154" height="40" viewBox="0 0 154 40" fill="none" xmlns="http://www.w3.org/2000/svg">
<path d="M55.4404 26.1758C54.667 26.1758 53.9756 26.0557 53.3662 25.8154C52.7568 25.5693 52.2412 25.2324 51.8193 24.8047C51.4033 24.377 51.084 23.8848 50.8613 23.3281C50.6445 22.7715 50.5361 22.1826 50.5361 21.5615V21.2275C50.5361 20.5303 50.6328 19.8857 50.8262 19.2939C51.0195 18.6963 51.3066 18.1748 51.6875 17.7295C52.0684 17.2842 52.5459 16.9385 53.1201 16.6924C53.6943 16.4404 54.3623 16.3145 55.124 16.3145C55.7979 16.3145 56.4014 16.4229 56.9346 16.6396C57.4678 16.8564 57.9189 17.167 58.2881 17.5713C58.6631 17.9756 58.9473 18.4648 59.1406 19.0391C59.3398 19.6133 59.4395 20.2578 59.4395 20.9727V22.1768H51.6699V20.3223H56.5479V20.0938C56.5537 19.7773 56.498 19.5078 56.3809 19.2852C56.2695 19.0625 56.1055 18.8926 55.8887 18.7754C55.6719 18.6582 55.4082 18.5996 55.0977 18.5996C54.7754 18.5996 54.5088 18.6699 54.2979 18.8105C54.0928 18.9512 53.9316 19.1445 53.8145 19.3906C53.7031 19.6309 53.624 19.9092 53.5771 20.2256C53.5303 20.542 53.5068 20.876 53.5068 21.2275V21.5615C53.5068 21.9131 53.5537 22.2324 53.6475 22.5195C53.7471 22.8066 53.8877 23.0527 54.0693 23.2578C54.2568 23.457 54.4795 23.6123 54.7373 23.7236C55.001 23.835 55.2998 23.8906 55.6338 23.8906C56.0381 23.8906 56.4365 23.8145 56.8291 23.6621C57.2217 23.5098 57.5586 23.2578 57.8398 22.9062L59.1846 24.5059C58.9912 24.7812 58.7158 25.0479 58.3584 25.3057C58.0068 25.5635 57.585 25.7744 57.0928 25.9385C56.6006 26.0967 56.0498 26.1758 55.4404 26.1758ZM63.6318 18.5029V26H60.6699V16.4902H63.4473L63.6318 18.5029ZM63.2715 20.9199L62.5947 20.9375C62.5947 20.2695 62.6738 19.6543 62.832 19.0918C62.9902 18.5293 63.2246 18.04 63.5352 17.624C63.8457 17.208 64.2266 16.8857 64.6777 16.6572C65.1348 16.4287 65.6621 16.3145 66.2598 16.3145C66.6758 16.3145 67.0537 16.3789 67.3936 16.5078C67.7334 16.6309 68.0264 16.8271 68.2725 17.0967C68.5186 17.3604 68.7061 17.7061 68.835 18.1338C68.9697 18.5557 69.0371 19.0625 69.0371 19.6543V26H66.0752V20.0322C66.0752 19.6279 66.0283 19.3232 65.9346 19.1182C65.8467 18.9131 65.7178 18.7754 65.5479 18.7051C65.3779 18.6348 65.1699 18.5996 64.9238 18.5996C64.666 18.5996 64.4346 18.6582 64.2295 18.7754C64.0244 18.8926 63.8486 19.0566 63.7021 19.2676C63.5615 19.4727 63.4531 19.7158 63.377 19.9971C63.3066 20.2783 63.2715 20.5859 63.2715 20.9199ZM68.7031 20.9199L67.877 20.9375C67.877 20.2695 67.9502 19.6543 68.0967 19.0918C68.249 18.5293 68.4746 18.04 68.7734 17.624C69.0781 17.208 69.4561 16.8857 69.9072 16.6572C70.3584 16.4287 70.8828 16.3145 71.4805 16.3145C71.9141 16.3145 72.3125 16.3789 72.6758 16.5078C73.0391 16.6367 73.3525 16.8447 73.6162 17.1318C73.8799 17.4189 74.085 17.7998 74.2314 18.2744C74.3779 18.7432 74.4512 19.3232 74.4512 20.0146V26H71.4805V20.0146C71.4805 19.6221 71.4336 19.3262 71.3398 19.127C71.252 18.9219 71.123 18.7842 70.9531 18.7139C70.7832 18.6377 70.5811 18.5996 70.3467 18.5996C70.0654 18.5996 69.8223 18.6582 69.6172 18.7754C69.4121 18.8926 69.2393 19.0566 69.0986 19.2676C68.9639 19.4727 68.8643 19.7158 68.7998 19.9971C68.7354 20.2783 68.7031 20.5859 68.7031 20.9199ZM76.1738 12.5H79.1357V23.6621L78.8281 26H76.1738V12.5ZM84.9717 21.1396V21.3242C84.9717 22.0449 84.8984 22.7012 84.752 23.293C84.6055 23.8848 84.3799 24.3975 84.0752 24.8311C83.7705 25.2588 83.3867 25.5898 82.9238 25.8242C82.4609 26.0586 81.9131 26.1758 81.2803 26.1758C80.7061 26.1758 80.2139 26.0527 79.8037 25.8066C79.3936 25.5547 79.0508 25.209 78.7754 24.7695C78.5 24.3242 78.2773 23.8115 78.1074 23.2314C77.9375 22.6455 77.8027 22.0186 77.7031 21.3506V21.1309C77.8027 20.4688 77.9375 19.8477 78.1074 19.2676C78.2773 18.6816 78.5 18.1689 78.7754 17.7295C79.0508 17.2842 79.3906 16.9385 79.7949 16.6924C80.2051 16.4404 80.6943 16.3145 81.2627 16.3145C81.9014 16.3145 82.4521 16.4346 82.915 16.6748C83.3838 16.915 83.7705 17.252 84.0752 17.6855C84.3799 18.1191 84.6055 18.6289 84.752 19.2148C84.8984 19.8008 84.9717 20.4424 84.9717 21.1396ZM82.0098 21.3242V21.1396C82.0098 20.7939 81.9893 20.4688 81.9482 20.1641C81.9072 19.8594 81.834 19.5898 81.7285 19.3555C81.623 19.1211 81.4736 18.9365 81.2803 18.8018C81.0869 18.667 80.835 18.5996 80.5244 18.5996C80.208 18.5996 79.9414 18.6523 79.7246 18.7578C79.5137 18.8633 79.3438 19.0156 79.2148 19.2148C79.0918 19.4082 79.0039 19.6484 78.9512 19.9355C78.8984 20.2168 78.875 20.5361 78.8809 20.8936V21.5879C78.8691 22.0742 78.9131 22.4902 79.0127 22.8359C79.1123 23.1816 79.2852 23.4453 79.5312 23.627C79.7773 23.8086 80.1143 23.8994 80.542 23.8994C80.8584 23.8994 81.1133 23.8379 81.3066 23.7148C81.5059 23.5918 81.6553 23.416 81.7549 23.1875C81.8545 22.959 81.9219 22.6865 81.957 22.3701C81.9922 22.0537 82.0098 21.7051 82.0098 21.3242ZM90.8955 26.1758C90.1221 26.1758 89.4307 26.0557 88.8213 25.8154C88.2119 25.5693 87.6963 25.2324 87.2744 24.8047C86.8584 24.377 86.5391 23.8848 86.3164 23.3281C86.0996 22.7715 85.9912 22.1826 85.9912 21.5615V21.2275C85.9912 20.5303 86.0879 19.8857 86.2812 19.2939C86.4746 18.6963 86.7617 18.1748 87.1426 17.7295C87.5234 17.2842 88.001 16.9385 88.5752 16.6924C89.1494 16.4404 89.8174 16.3145 90.5791 16.3145C91.2529 16.3145 91.8564 16.4229 92.3896 16.6396C92.9229 16.8564 93.374 17.167 93.7432 17.5713C94.1182 17.9756 94.4023 18.4648 94.5957 19.0391C94.7949 19.6133 94.8945 20.2578 94.8945 20.9727V22.1768H87.125V20.3223H92.0029V20.0938C92.0088 19.7773 91.9531 19.5078 91.8359 19.2852C91.7246 19.0625 91.5605 18.8926 91.3438 18.7754C91.127 18.6582 90.8633 18.5996 90.5527 18.5996C90.2305 18.5996 89.9639 18.6699 89.7529 18.8105C89.5479 18.9512 89.3867 19.1445 89.2695 19.3906C89.1582 19.6309 89.0791 19.9092 89.0322 20.2256C88.9854 20.542 88.9619 20.876 88.9619 21.2275V21.5615C88.9619 21.9131 89.0088 22.2324 89.1025 22.5195C89.2021 22.8066 89.3428 23.0527 89.5244 23.2578C89.7119 23.457 89.9346 23.6123 90.1924 23.7236C90.4561 23.835 90.7549 23.8906 91.0889 23.8906C91.4932 23.8906 91.8916 23.8145 92.2842 23.6621C92.6768 23.5098 93.0137 23.2578 93.2949 22.9062L94.6396 24.5059C94.4463 24.7812 94.1709 25.0479 93.8135 25.3057C93.4619 25.5635 93.04 25.7744 92.5479 25.9385C92.0557 26.0967 91.5049 26.1758 90.8955 26.1758ZM101.565 23.8203V12.5H104.545V26H101.873L101.565 23.8203ZM95.7295 21.3594V21.1748C95.7295 20.4541 95.8086 19.7979 95.9668 19.2061C96.125 18.6084 96.3594 18.0957 96.6699 17.668C96.9805 17.2344 97.3672 16.9004 97.8301 16.666C98.293 16.4316 98.8262 16.3145 99.4297 16.3145C99.9688 16.3145 100.44 16.4404 100.845 16.6924C101.249 16.9385 101.595 17.2842 101.882 17.7295C102.169 18.1748 102.403 18.6963 102.585 19.2939C102.767 19.8857 102.904 20.5244 102.998 21.21V21.4297C102.904 22.0742 102.767 22.6836 102.585 23.2578C102.403 23.8262 102.169 24.3301 101.882 24.7695C101.595 25.209 101.246 25.5547 100.836 25.8066C100.432 26.0527 99.957 26.1758 99.4121 26.1758C98.8086 26.1758 98.2754 26.0557 97.8125 25.8154C97.3555 25.5752 96.9717 25.2383 96.6611 24.8047C96.3564 24.3711 96.125 23.8613 95.9668 23.2754C95.8086 22.6895 95.7295 22.0508 95.7295 21.3594ZM98.6914 21.1748V21.3594C98.6914 21.7168 98.7148 22.0479 98.7617 22.3525C98.8086 22.6572 98.8877 22.9268 98.999 23.1611C99.1162 23.3896 99.2686 23.5684 99.4561 23.6973C99.6494 23.8262 99.8867 23.8906 100.168 23.8906C100.549 23.8906 100.862 23.7998 101.108 23.6182C101.36 23.4365 101.545 23.1787 101.662 22.8447C101.785 22.5107 101.838 22.1182 101.82 21.667V20.9727C101.832 20.5859 101.806 20.2461 101.741 19.9531C101.677 19.6543 101.574 19.4053 101.434 19.2061C101.299 19.0068 101.126 18.8574 100.915 18.7578C100.71 18.6523 100.467 18.5996 100.186 18.5996C99.9102 18.5996 99.6758 18.6641 99.4824 18.793C99.2949 18.9219 99.1426 19.1035 99.0254 19.3379C98.9082 19.5664 98.8232 19.8389 98.7705 20.1553C98.7178 20.4658 98.6914 20.8057 98.6914 21.1748ZM111.207 23.3281C111.207 23.1641 111.151 23.0234 111.04 22.9062C110.935 22.7832 110.747 22.6719 110.478 22.5723C110.208 22.4668 109.83 22.3613 109.344 22.2559C108.881 22.1562 108.444 22.0244 108.034 21.8604C107.63 21.6963 107.275 21.4971 106.971 21.2627C106.666 21.0283 106.426 20.75 106.25 20.4277C106.08 20.1055 105.995 19.7363 105.995 19.3203C105.995 18.916 106.08 18.5352 106.25 18.1777C106.426 17.8145 106.681 17.4951 107.015 17.2197C107.354 16.9385 107.768 16.7188 108.254 16.5605C108.74 16.3965 109.294 16.3145 109.915 16.3145C110.771 16.3145 111.509 16.4463 112.13 16.71C112.751 16.9678 113.229 17.3311 113.562 17.7998C113.902 18.2627 114.072 18.7988 114.072 19.4082H111.11C111.11 19.168 111.069 18.9629 110.987 18.793C110.911 18.623 110.785 18.4941 110.609 18.4062C110.434 18.3125 110.199 18.2656 109.906 18.2656C109.701 18.2656 109.514 18.3037 109.344 18.3799C109.18 18.4561 109.048 18.5615 108.948 18.6963C108.849 18.8311 108.799 18.9893 108.799 19.1709C108.799 19.2998 108.828 19.417 108.887 19.5225C108.951 19.6221 109.048 19.7158 109.177 19.8037C109.306 19.8857 109.47 19.9619 109.669 20.0322C109.868 20.0967 110.108 20.1553 110.39 20.208C111.028 20.3252 111.626 20.4922 112.183 20.709C112.739 20.9258 113.19 21.2334 113.536 21.6318C113.888 22.0303 114.063 22.5664 114.063 23.2402C114.063 23.6621 113.967 24.0518 113.773 24.4092C113.58 24.7607 113.302 25.0713 112.938 25.3408C112.575 25.6045 112.139 25.8096 111.629 25.9561C111.119 26.1025 110.545 26.1758 109.906 26.1758C108.998 26.1758 108.23 26.0146 107.604 25.6924C106.977 25.3643 106.502 24.9541 106.18 24.4619C105.863 23.9639 105.705 23.46 105.705 22.9502H108.465C108.477 23.2432 108.547 23.4834 108.676 23.6709C108.811 23.8584 108.989 23.9961 109.212 24.084C109.435 24.1719 109.692 24.2158 109.985 24.2158C110.255 24.2158 110.478 24.1777 110.653 24.1016C110.835 24.0254 110.973 23.9229 111.066 23.7939C111.16 23.6592 111.207 23.5039 111.207 23.3281ZM115.083 21.3418V21.1572C115.083 20.46 115.183 19.8184 115.382 19.2324C115.581 18.6406 115.874 18.1279 116.261 17.6943C116.647 17.2607 117.125 16.9238 117.693 16.6836C118.262 16.4375 118.918 16.3145 119.662 16.3145C120.412 16.3145 121.071 16.4375 121.64 16.6836C122.214 16.9238 122.694 17.2607 123.081 17.6943C123.468 18.1279 123.761 18.6406 123.96 19.2324C124.159 19.8184 124.259 20.46 124.259 21.1572V21.3418C124.259 22.0332 124.159 22.6748 123.96 23.2666C123.761 23.8525 123.468 24.3652 123.081 24.8047C122.694 25.2383 122.217 25.5752 121.648 25.8154C121.08 26.0557 120.424 26.1758 119.68 26.1758C118.936 26.1758 118.276 26.0557 117.702 25.8154C117.128 25.5752 116.647 25.2383 116.261 24.8047C115.874 24.3652 115.581 23.8525 115.382 23.2666C115.183 22.6748 115.083 22.0332 115.083 21.3418ZM118.045 21.1572V21.3418C118.045 21.6992 118.071 22.0332 118.124 22.3438C118.177 22.6543 118.265 22.9268 118.388 23.1611C118.511 23.3896 118.678 23.5684 118.889 23.6973C119.1 23.8262 119.363 23.8906 119.68 23.8906C119.99 23.8906 120.248 23.8262 120.453 23.6973C120.664 23.5684 120.831 23.3896 120.954 23.1611C121.077 22.9268 121.165 22.6543 121.218 22.3438C121.271 22.0332 121.297 21.6992 121.297 21.3418V21.1572C121.297 20.8115 121.271 20.4863 121.218 20.1816C121.165 19.8711 121.077 19.5986 120.954 19.3643C120.831 19.124 120.664 18.9365 120.453 18.8018C120.242 18.667 119.979 18.5996 119.662 18.5996C119.352 18.5996 119.091 18.667 118.88 18.8018C118.675 18.9365 118.511 19.124 118.388 19.3643C118.265 19.5986 118.177 19.8711 118.124 20.1816C118.071 20.4863 118.045 20.8115 118.045 21.1572ZM129.594 23.8906C129.869 23.8906 130.104 23.8408 130.297 23.7412C130.496 23.6357 130.646 23.4893 130.745 23.3018C130.851 23.1084 130.9 22.877 130.895 22.6074H133.681C133.687 23.3223 133.511 23.9492 133.153 24.4883C132.802 25.0215 132.321 25.4375 131.712 25.7363C131.108 26.0293 130.426 26.1758 129.664 26.1758C128.92 26.1758 128.27 26.0557 127.713 25.8154C127.156 25.5693 126.69 25.2295 126.315 24.7959C125.946 24.3564 125.668 23.8438 125.48 23.2578C125.299 22.6719 125.208 22.0361 125.208 21.3506V21.1484C125.208 20.4629 125.299 19.8271 125.48 19.2412C125.668 18.6494 125.946 18.1367 126.315 17.7031C126.69 17.2637 127.153 16.9238 127.704 16.6836C128.261 16.4375 128.908 16.3145 129.646 16.3145C130.438 16.3145 131.135 16.4639 131.738 16.7627C132.348 17.0615 132.825 17.4951 133.171 18.0635C133.517 18.6318 133.687 19.3203 133.681 20.1289H130.895C130.9 19.8418 130.856 19.584 130.763 19.3555C130.669 19.127 130.522 18.9453 130.323 18.8105C130.13 18.6699 129.881 18.5996 129.576 18.5996C129.271 18.5996 129.025 18.667 128.838 18.8018C128.65 18.9365 128.507 19.124 128.407 19.3643C128.313 19.5986 128.249 19.8682 128.214 20.1729C128.185 20.4775 128.17 20.8027 128.17 21.1484V21.3506C128.17 21.7021 128.185 22.0332 128.214 22.3438C128.249 22.6484 128.316 22.918 128.416 23.1523C128.516 23.3809 128.659 23.5625 128.847 23.6973C129.034 23.8262 129.283 23.8906 129.594 23.8906ZM138.075 16.4902V26H135.104V16.4902H138.075ZM134.929 14.0381C134.929 13.6162 135.081 13.2705 135.386 13.001C135.69 12.7314 136.086 12.5967 136.572 12.5967C137.059 12.5967 137.454 12.7314 137.759 13.001C138.063 13.2705 138.216 13.6162 138.216 14.0381C138.216 14.46 138.063 14.8057 137.759 15.0752C137.454 15.3447 137.059 15.4795 136.572 15.4795C136.086 15.4795 135.69 15.3447 135.386 15.0752C135.081 14.8057 134.929 14.46 134.929 14.0381ZM144.843 23.6094V19.6895C144.843 19.4199 144.805 19.1885 144.729 18.9951C144.652 18.8018 144.532 18.6523 144.368 18.5469C144.204 18.4355 143.984 18.3799 143.709 18.3799C143.486 18.3799 143.296 18.418 143.138 18.4941C142.979 18.5703 142.859 18.6846 142.777 18.8369C142.695 18.9893 142.654 19.1826 142.654 19.417H139.692C139.692 18.9775 139.789 18.5703 139.982 18.1953C140.182 17.8145 140.463 17.4834 140.826 17.2021C141.195 16.9209 141.635 16.7041 142.145 16.5518C142.66 16.3936 143.234 16.3145 143.867 16.3145C144.623 16.3145 145.297 16.4404 145.889 16.6924C146.486 16.9443 146.958 17.3223 147.304 17.8262C147.649 18.3242 147.822 18.9512 147.822 19.707V23.6006C147.822 24.2217 147.857 24.6934 147.928 25.0156C147.998 25.332 148.098 25.6104 148.227 25.8506V26H145.256C145.115 25.707 145.01 25.3496 144.939 24.9277C144.875 24.5 144.843 24.0605 144.843 23.6094ZM145.203 20.1904L145.221 21.7725H143.911C143.636 21.7725 143.401 21.8105 143.208 21.8867C143.021 21.9629 142.868 22.0684 142.751 22.2031C142.64 22.332 142.558 22.4785 142.505 22.6426C142.458 22.8066 142.435 22.9795 142.435 23.1611C142.435 23.3369 142.476 23.4951 142.558 23.6357C142.646 23.7705 142.763 23.876 142.909 23.9521C143.056 24.0283 143.22 24.0664 143.401 24.0664C143.729 24.0664 144.008 24.0049 144.236 23.8818C144.471 23.7529 144.649 23.5977 144.772 23.416C144.896 23.2344 144.957 23.0645 144.957 22.9062L145.607 24.1191C145.49 24.3535 145.355 24.5908 145.203 24.8311C145.057 25.0713 144.872 25.2939 144.649 25.499C144.433 25.6982 144.166 25.8623 143.85 25.9912C143.533 26.1143 143.149 26.1758 142.698 26.1758C142.112 26.1758 141.573 26.0557 141.081 25.8154C140.595 25.5752 140.205 25.2412 139.912 24.8135C139.619 24.3799 139.473 23.8818 139.473 23.3193C139.473 22.8271 139.561 22.3877 139.736 22.001C139.918 21.6143 140.19 21.2861 140.554 21.0166C140.917 20.7471 141.38 20.542 141.942 20.4014C142.505 20.2607 143.167 20.1904 143.929 20.1904H145.203ZM152.595 12.5V26H149.624V12.5H152.595Z" fill="black"/>
<rect width="40" height="40" rx="6.66667" fill="black"/>
<path d="M19.6589 11.5042V12.621C19.6589 13.5821 19.479 13.7379 18.8585 14.0757L13.077 17.0108V17.1407L18.8322 20.024C19.479 20.3615 19.6589 20.4916 19.6589 21.4787V22.7253C19.6589 23.5044 19.4002 23.7643 18.7291 23.4008L10.0307 18.6211C9.51516 18.3355 9.33331 18.1276 9.33331 17.5305V16.6992C9.33331 16.1017 9.51516 15.8679 10.0307 15.5823L18.7291 10.8287C19.4002 10.4652 19.6589 10.7248 19.6589 11.5042Z" fill="white"/>
<path d="M20.5775 15.6117L29.2497 20.3651C29.7915 20.6508 29.9733 20.8586 29.9733 21.4559V22.2872C29.9733 22.9106 29.7915 23.1183 29.2497 23.404L20.5775 28.1575C19.8802 28.5212 19.6477 28.2615 19.6477 27.4822V26.3653C19.6477 25.4043 19.8277 25.2483 20.4482 24.9367L26.2296 22.0015V21.8457L20.4744 18.9624C19.8277 18.6508 19.6477 18.4948 19.6477 17.5077V16.2609C19.6477 15.4815 19.8802 15.2221 20.5775 15.6117Z" fill="white"/>
</svg>
